Title: Un Amour de Jeunesse aka Goodbye First Love
Year: 2011 
Country: France / Germany
Language: French / German / Danish
Genre: Drama / Romance
Runtime: 110 min
Source: DVDRIP
Size: 1,46 GB
Directed by: Mia Hansen-Love
Starring:
Lola Creton  ...  Camille
Sebastian Urzendowsky  ...  Sullivan
Magne-Havard Brekke  ...  Lorenz
Valerie Bonneton  ...  Camille's mother
Serge Renko  ...  Camille's father
Ozay Fecht  ...  Sullivan's mother
Max Ricat  ...  Sullivan's brother

IMDB Link: http://www.imdb.com/title/tt1618447/                   


Plot: A chronicle of the romance between Camille and Sullivan, which begins during their adolescence and picks up after Sullivan's 8-year absence from exploring the world. [IMDB]


THIS TORRENT HAS SOFT SUBTITLES IN ENGLISH AND BRAZILIAN PORTUGUESE.


General
Complete name                    : Un.Amour.de.Jeunesse.2011.DVDRip.AC3.HORiZON-ArtSubs
Format                           : AVI
Format/Info                      : Audio Video Interleave
File size                        : 1.46 GiB
Duration                         : 1h 50mn
Overall bit rate                 : 1 898 Kbps
Writing application              : FairUse Wizard - http://fairusewizard.com
Writing library                  : The best and REALLY easy backup tool

Video
ID                               : 0
Format                           : MPEG-4 Visual
Format profile                   : Advanced Simple@L5
Format settings, BVOP            : Yes
Format settings, QPel            : No
Format settings, GMC             : No warppoints
Format settings, Matrix          : Default (H.263)
Muxing mode                      : Packed bitstream
Codec ID                         : XVID
Codec ID/Hint                    : XviD
Duration                         : 1h 50mn
Bit rate                         : 1 697 Kbps
Width                            : 672 pixels
Height                           : 368 pixels
Display aspect ratio             : 16:9
Frame rate                       : 23.976 fps
Color space                      : YUV
Chroma subsampling               : 4:2:0
Bit depth                        : 8 bits
Scan type                        : Progressive
Compression mode                 : Lossy
Bits/(Pixel*Frame)               : 0.286
Stream size                      : 1.31 GiB (89%)
Writing library                  : XviD 1.1.0 (UTC 2005-11-22)

Audio
ID                               : 1
Format                           : AC-3
Format/Info                      : Audio Coding 3
Mode extension                   : CM (complete main)
Codec ID                         : 2000
Duration                         : 1h 50mn
Bit rate mode                    : Constant
Bit rate                         : 192 Kbps
Channel(s)                       : 2 channels
Channel positions                : Front: L R
Sampling rate                    : 48.0 KHz
Bit depth                        : 16 bits
Compression mode                 : Lossy
Stream size                      : 152 MiB (10%)
Alignment                        : Split accross interleaves
Interleave, duration             : 42 ms (1.00 video frame)
Interleave, preload duration     : 500 ms
